<svg xmlns="http://www.w3.org/2000/svg" xmlns:xlink="http://www.w3.org/1999/xlink" width="400" zoomAndPan="magnify" viewBox="0 0 300 74.999997" height="100" preserveAspectRatio="xMidYMid meet" version="1.0"><defs><g/></defs><g fill="#d9d9d9" fill-opacity="1"><g transform="translate(36.591601, 30.756645)"><g><path d="M 0.390625 -9.984375 L 7.1875 -9.984375 L 7.1875 -5.703125 C 7.1875 -5.140625 7.507812 -4.859375 8.15625 -4.859375 L 8.578125 -4.859375 C 9.222656 -4.859375 9.546875 -5.140625 9.546875 -5.703125 L 9.546875 -24.921875 L 16.34375 -24.921875 L 16.34375 -4.8125 C 16.34375 -1.601562 14.441406 0 10.640625 0 L 6.09375 0 C 2.289062 0 0.390625 -1.601562 0.390625 -4.8125 Z M 0.390625 -9.984375 "/></g></g></g><g fill="#d9d9d9" fill-opacity="1"><g transform="translate(59.773164, 30.756645)"><g><path d="M 7.140625 -24.921875 L 12.890625 -24.921875 C 16.691406 -24.921875 18.59375 -23.316406 18.59375 -20.109375 L 18.59375 -4.8125 C 18.59375 -1.601562 16.691406 0 12.890625 0 L 7.140625 0 C 3.335938 0 1.4375 -1.601562 1.4375 -4.8125 L 1.4375 -20.109375 C 1.4375 -23.316406 3.335938 -24.921875 7.140625 -24.921875 Z M 11.796875 -5.703125 L 11.796875 -19.21875 C 11.796875 -19.789062 11.472656 -20.078125 10.828125 -20.078125 L 9.203125 -20.078125 C 8.554688 -20.078125 8.234375 -19.789062 8.234375 -19.21875 L 8.234375 -5.703125 C 8.234375 -5.140625 8.554688 -4.859375 9.203125 -4.859375 L 10.828125 -4.859375 C 11.472656 -4.859375 11.796875 -5.140625 11.796875 -5.703125 Z M 11.796875 -5.703125 "/></g></g></g><g fill="#d9d9d9" fill-opacity="1"><g transform="translate(85.245608, 30.756645)"><g><path d="M 8.34375 -4.859375 L 16.84375 -4.859375 L 16.84375 0 L 1.546875 0 L 1.546875 -24.921875 L 16.5 -24.921875 L 16.5 -20.078125 L 8.34375 -20.078125 L 8.34375 -14.984375 L 15.375 -14.984375 L 15.375 -10.140625 L 8.34375 -10.140625 Z M 8.34375 -4.859375 "/></g></g></g><g fill="#d9d9d9" fill-opacity="1"><g transform="translate(108.116553, 30.756645)"><g><path d="M 8.34375 -4.859375 L 16.078125 -4.859375 L 16.078125 0 L 1.546875 0 L 1.546875 -24.921875 L 8.34375 -24.921875 Z M 8.34375 -4.859375 "/></g></g></g><g fill="#d9d9d9" fill-opacity="1"><g transform="translate(129.628501, 30.756645)"><g/></g></g><g fill="#d9d9d9" fill-opacity="1"><g transform="translate(142.831158, 30.756645)"><g><path d="M 16.5 -20.078125 L 8.34375 -20.078125 L 8.34375 -14.015625 L 15.421875 -14.015625 L 15.421875 -9.546875 L 8.34375 -9.546875 L 8.34375 0 L 1.546875 0 L 1.546875 -24.921875 L 16.5 -24.921875 Z M 16.5 -20.078125 "/></g></g></g><g fill="#d9d9d9" fill-opacity="1"><g transform="translate(165.352634, 30.756645)"><g><path d="M 14.25 0 L 13.46875 -3.734375 L 7.5 -3.734375 L 6.671875 0 L 0 0 L 6.40625 -24.921875 L 14.671875 -24.921875 L 21.078125 0 Z M 8.546875 -8.546875 L 12.421875 -8.546875 L 10.515625 -17.515625 Z M 8.546875 -8.546875 "/></g></g></g><g fill="#d9d9d9" fill-opacity="1"><g transform="translate(191.87344, 30.756645)"><g><path d="M 12 -15.5625 L 12 -19.609375 C 12 -20.179688 11.675781 -20.46875 11.03125 -20.46875 L 8.234375 -20.46875 L 8.234375 -14.71875 L 11.03125 -14.71875 C 11.675781 -14.71875 12 -15 12 -15.5625 Z M 12 -5.3125 L 12 -9.390625 C 12 -9.960938 11.675781 -10.25 11.03125 -10.25 L 8.234375 -10.25 L 8.234375 -4.46875 L 11.03125 -4.46875 C 11.675781 -4.46875 12 -4.75 12 -5.3125 Z M 1.546875 -24.921875 L 12.96875 -24.921875 C 16.769531 -24.921875 18.671875 -23.316406 18.671875 -20.109375 L 18.671875 -16.921875 C 18.671875 -14.671875 18.050781 -13.210938 16.8125 -12.546875 C 17.539062 -12.234375 18.03125 -11.757812 18.28125 -11.125 C 18.539062 -10.488281 18.671875 -9.628906 18.671875 -8.546875 L 18.671875 -4.8125 C 18.671875 -1.601562 16.769531 0 12.96875 0 L 1.546875 0 Z M 1.546875 -24.921875 "/></g></g></g><g fill="#d9d9d9" fill-opacity="1"><g transform="translate(217.345879, 30.756645)"><g><path d="M 7.140625 -24.921875 L 12.890625 -24.921875 C 16.691406 -24.921875 18.59375 -23.316406 18.59375 -20.109375 L 18.59375 -4.8125 C 18.59375 -1.601562 16.691406 0 12.890625 0 L 7.140625 0 C 3.335938 0 1.4375 -1.601562 1.4375 -4.8125 L 1.4375 -20.109375 C 1.4375 -23.316406 3.335938 -24.921875 7.140625 -24.921875 Z M 11.796875 -5.703125 L 11.796875 -19.21875 C 11.796875 -19.789062 11.472656 -20.078125 10.828125 -20.078125 L 9.203125 -20.078125 C 8.554688 -20.078125 8.234375 -19.789062 8.234375 -19.21875 L 8.234375 -5.703125 C 8.234375 -5.140625 8.554688 -4.859375 9.203125 -4.859375 L 10.828125 -4.859375 C 11.472656 -4.859375 11.796875 -5.140625 11.796875 -5.703125 Z M 11.796875 -5.703125 "/></g></g></g><g fill="#d9d9d9" fill-opacity="1"><g transform="translate(242.818318, 30.756645)"><g><path d="M 15.453125 -12.734375 L 20.34375 0 L 13.046875 0 L 8.390625 -12.734375 L 13 -24.921875 L 20.3125 -24.921875 Z M 1.546875 0 L 1.546875 -24.921875 L 8.34375 -24.921875 L 8.34375 0 Z M 1.546875 0 "/></g></g></g><g fill="#d9d9d9" fill-opacity="1"><g transform="translate(97.054821, 67.845068)"><g><path d="M 8.09375 -17.046875 C 10.269531 -17.046875 11.359375 -15.882812 11.359375 -13.5625 L 11.359375 -3.484375 C 11.359375 -1.160156 10.269531 0 8.09375 0 L 1.3125 0 L 1.3125 -17.046875 Z M 7.671875 -3.0625 L 7.671875 -14.015625 C 7.671875 -14.148438 7.617188 -14.269531 7.515625 -14.375 C 7.421875 -14.488281 7.304688 -14.546875 7.171875 -14.546875 L 5 -14.546875 L 5 -2.53125 L 7.171875 -2.53125 C 7.304688 -2.53125 7.421875 -2.582031 7.515625 -2.6875 C 7.617188 -2.789062 7.671875 -2.914062 7.671875 -3.0625 Z M 7.671875 -3.0625 "/></g></g></g><g fill="#d9d9d9" fill-opacity="1"><g transform="translate(117.818529, 67.845068)"><g><path d="M 7.421875 -13.125 C 9.609375 -13.125 10.703125 -11.960938 10.703125 -9.640625 L 10.703125 -5.484375 L 4.71875 -5.484375 L 4.71875 -2.796875 C 4.71875 -2.648438 4.765625 -2.523438 4.859375 -2.421875 C 4.953125 -2.316406 5.070312 -2.265625 5.21875 -2.265625 L 6.671875 -2.265625 C 6.804688 -2.265625 6.921875 -2.316406 7.015625 -2.421875 C 7.117188 -2.523438 7.171875 -2.648438 7.171875 -2.796875 L 7.171875 -4.21875 L 10.703125 -4.21875 L 10.703125 -3.21875 C 10.703125 -0.894531 9.609375 0.265625 7.421875 0.265625 L 4.453125 0.265625 C 2.273438 0.265625 1.1875 -0.894531 1.1875 -3.21875 L 1.1875 -9.640625 C 1.1875 -11.960938 2.273438 -13.125 4.453125 -13.125 Z M 4.71875 -7.796875 L 7.171875 -7.796875 L 7.171875 -10.171875 C 7.171875 -10.304688 7.117188 -10.425781 7.015625 -10.53125 C 6.921875 -10.644531 6.804688 -10.703125 6.671875 -10.703125 L 5.21875 -10.703125 C 5.070312 -10.703125 4.953125 -10.644531 4.859375 -10.53125 C 4.765625 -10.425781 4.71875 -10.304688 4.71875 -10.171875 Z M 4.71875 -7.796875 "/></g></g></g><g fill="#d9d9d9" fill-opacity="1"><g transform="translate(137.26474, 67.845068)"><g><path d="M 7.25 -8.0625 C 9.425781 -8.0625 10.515625 -6.898438 10.515625 -4.578125 L 10.515625 -3.21875 C 10.515625 -0.894531 9.425781 0.265625 7.25 0.265625 L 4.328125 0.265625 C 2.140625 0.265625 1.046875 -0.894531 1.046875 -3.21875 L 1.046875 -4.03125 L 4.328125 -4.03125 L 4.328125 -2.875 C 4.328125 -2.726562 4.375 -2.601562 4.46875 -2.5 C 4.5625 -2.394531 4.679688 -2.34375 4.828125 -2.34375 L 6.984375 -2.34375 C 7.117188 -2.34375 7.234375 -2.394531 7.328125 -2.5 C 7.429688 -2.601562 7.484375 -2.726562 7.484375 -2.875 L 7.484375 -4.453125 C 7.484375 -4.585938 7.429688 -4.707031 7.328125 -4.8125 C 7.234375 -4.925781 7.117188 -4.984375 6.984375 -4.984375 L 4.265625 -4.984375 C 2.085938 -4.984375 1 -6.140625 1 -8.453125 L 1 -9.640625 C 1 -11.960938 2.085938 -13.125 4.265625 -13.125 L 7.03125 -13.125 C 9.207031 -13.125 10.296875 -11.960938 10.296875 -9.640625 L 10.296875 -9.171875 L 7.03125 -9.171875 L 7.03125 -9.984375 C 7.03125 -10.117188 6.984375 -10.238281 6.890625 -10.34375 C 6.796875 -10.457031 6.675781 -10.515625 6.53125 -10.515625 L 4.53125 -10.515625 C 4.394531 -10.515625 4.273438 -10.457031 4.171875 -10.34375 C 4.078125 -10.238281 4.03125 -10.117188 4.03125 -9.984375 L 4.03125 -8.59375 C 4.03125 -8.445312 4.078125 -8.320312 4.171875 -8.21875 C 4.273438 -8.113281 4.394531 -8.0625 4.53125 -8.0625 Z M 7.25 -8.0625 "/></g></g></g><g fill="#d9d9d9" fill-opacity="1"><g transform="translate(156.658246, 67.845068)"><g><path d="M 4.78125 -14.453125 C 4.40625 -14.085938 3.953125 -13.90625 3.421875 -13.90625 C 2.898438 -13.90625 2.441406 -14.09375 2.046875 -14.46875 C 1.660156 -14.851562 1.46875 -15.3125 1.46875 -15.84375 C 1.46875 -16.382812 1.660156 -16.84375 2.046875 -17.21875 C 2.441406 -17.59375 2.898438 -17.78125 3.421875 -17.78125 C 3.953125 -17.78125 4.40625 -17.59375 4.78125 -17.21875 C 5.15625 -16.84375 5.34375 -16.378906 5.34375 -15.828125 C 5.34375 -15.285156 5.15625 -14.828125 4.78125 -14.453125 Z M 1.65625 0 L 1.65625 -12.859375 L 5.1875 -12.859375 L 5.1875 0 Z M 1.65625 0 "/></g></g></g><g fill="#d9d9d9" fill-opacity="1"><g transform="translate(171.124328, 67.845068)"><g><path d="M 10.703125 -12.859375 L 10.703125 0.96875 C 10.703125 3.289062 9.609375 4.453125 7.421875 4.453125 L 4.796875 4.453125 C 2.617188 4.453125 1.53125 3.289062 1.53125 0.96875 L 1.53125 0.546875 L 4.71875 0.546875 L 4.71875 1.390625 C 4.71875 1.535156 4.765625 1.660156 4.859375 1.765625 C 4.953125 1.867188 5.070312 1.921875 5.21875 1.921875 L 6.671875 1.921875 C 6.804688 1.921875 6.921875 1.867188 7.015625 1.765625 C 7.117188 1.660156 7.171875 1.535156 7.171875 1.390625 L 7.171875 -1.234375 C 6.617188 -0.816406 5.894531 -0.609375 5 -0.609375 L 4.453125 -0.609375 C 2.273438 -0.609375 1.1875 -1.765625 1.1875 -4.078125 L 1.1875 -9.640625 C 1.1875 -11.960938 2.273438 -13.125 4.453125 -13.125 L 5 -13.125 C 6.269531 -13.125 7.175781 -12.71875 7.71875 -11.90625 L 7.71875 -12.859375 Z M 7.171875 -3.65625 L 7.171875 -10.0625 C 7.171875 -10.207031 7.117188 -10.332031 7.015625 -10.4375 C 6.921875 -10.539062 6.804688 -10.59375 6.671875 -10.59375 L 5.21875 -10.59375 C 5.070312 -10.59375 4.953125 -10.539062 4.859375 -10.4375 C 4.765625 -10.332031 4.71875 -10.207031 4.71875 -10.0625 L 4.71875 -3.65625 C 4.71875 -3.519531 4.765625 -3.398438 4.859375 -3.296875 C 4.953125 -3.191406 5.070312 -3.140625 5.21875 -3.140625 L 6.671875 -3.140625 C 6.804688 -3.140625 6.921875 -3.191406 7.015625 -3.296875 C 7.117188 -3.398438 7.171875 -3.519531 7.171875 -3.65625 Z M 7.171875 -3.65625 "/></g></g></g><g fill="#d9d9d9" fill-opacity="1"><g transform="translate(191.018483, 67.845068)"><g><path d="M 4.71875 0 L 1.1875 0 L 1.1875 -12.859375 L 4.40625 -12.859375 L 4.40625 -12.203125 C 4.945312 -12.816406 5.769531 -13.125 6.875 -13.125 L 7.421875 -13.125 C 9.609375 -13.125 10.703125 -11.960938 10.703125 -9.640625 L 10.703125 0 L 7.171875 0 L 7.171875 -10.0625 C 7.171875 -10.207031 7.117188 -10.332031 7.015625 -10.4375 C 6.921875 -10.539062 6.804688 -10.59375 6.671875 -10.59375 L 5.21875 -10.59375 C 5.070312 -10.59375 4.953125 -10.539062 4.859375 -10.4375 C 4.765625 -10.332031 4.71875 -10.207031 4.71875 -10.0625 Z M 4.71875 0 "/></g></g></g></svg>